<svg width="2079" height="512" viewBox="0 0 2079 512" fill="none" xmlns="http://www.w3.org/2000/svg">
<path d="M14 499C13 339.333 11.6 19.2 14 16L254 12L258 138H380V144V257H503V499H14Z" fill="#FFD700"/>
<path d="M501.801 245.801H387.908V134.629C387.908 128.997 383.342 124.43 377.709 124.43H266.539V10.199C266.539 4.567 261.973 0 256.34 0H10.199C4.566 0 0 4.567 0 10.199V501.801C0 507.433 4.566 512 10.199 512H501.801C507.434 512 512 507.433 512 501.801V256C512 250.368 507.434 245.801 501.801 245.801ZM367.51 144.829V245.801H144.489V144.829H367.51ZM20.398 20.398H246.14V124.43H20.398V20.398ZM20.398 144.829H124.09V245.801H20.398V144.829ZM20.398 266.199H246.14V367.851H20.398V266.199ZM124.091 491.602H20.398V388.25H124.09V491.602H124.091ZM367.511 491.602H144.489V388.25H367.511V491.602ZM491.602 491.602H387.909V388.25H421.227C426.86 388.25 431.426 383.683 431.426 378.051C431.426 372.419 426.86 367.852 421.227 367.852H266.539V266.199H491.602V491.602Z" fill="black"/>
<path d="M464.064 367.852H457.944C452.311 367.852 447.745 372.419 447.745 378.051C447.745 383.683 452.311 388.25 457.944 388.25H464.064C469.697 388.25 474.263 383.683 474.263 378.051C474.263 372.419 469.697 367.852 464.064 367.852Z" fill="black"/>
<path d="M865.61 425.63L863 383H736.27V148.1H769.04V359.51H835.74V148.1H868.51V359.51H890.84V425.63H865.61ZM960.46 385.32C947.314 385.32 937.164 382.807 930.01 377.78C922.857 372.56 917.83 365.02 914.93 355.16C912.224 345.107 910.87 332.83 910.87 318.33V280.05C910.87 265.163 912.32 252.79 915.22 242.93C918.12 233.07 923.147 225.627 930.3 220.6C937.647 215.573 947.7 213.06 960.46 213.06C974.574 213.06 984.917 215.96 991.49 221.76C998.257 227.56 1002.7 235.97 1004.83 246.99C1006.96 257.817 1008.02 270.867 1008.02 286.14V299.77H941.9V333.41C941.9 340.177 942.48 345.687 943.64 349.94C944.994 354.193 947.024 357.383 949.73 359.51C952.63 361.443 956.304 362.41 960.75 362.41C965.39 362.41 968.87 361.347 971.19 359.22C973.704 356.9 975.347 353.71 976.12 349.65C977.087 345.397 977.57 340.467 977.57 334.86V324.71H1007.73V331.09C1007.73 347.91 1004.15 361.153 997 370.82C989.847 380.487 977.667 385.32 960.46 385.32ZM941.9 282.95H977.57V267.87C977.57 260.91 977.184 255.11 976.41 250.47C975.637 245.637 973.994 242.06 971.48 239.74C969.16 237.227 965.39 235.97 960.17 235.97C955.144 235.97 951.277 237.13 948.57 239.45C946.057 241.77 944.317 245.733 943.35 251.34C942.384 256.753 941.9 264.293 941.9 273.96V282.95ZM1035.25 383L1036.99 215.38H1059.9L1097.02 318.33L1134.43 215.38H1157.34L1159.08 383H1132.98V282.95L1101.95 366.47H1092.38L1061.35 283.53V383H1035.25ZM1188.17 307.31V283.82H1252.84V307.31H1188.17ZM1414.74 425.63L1412.13 383H1285.4V148.1H1318.17V359.51H1384.87V148.1H1417.64V359.51H1439.97V425.63H1414.74ZM1509.59 385.32C1496.44 385.32 1486.29 382.807 1479.14 377.78C1471.99 372.56 1466.96 365.02 1464.06 355.16C1461.35 345.107 1460 332.83 1460 318.33V280.05C1460 265.163 1461.45 252.79 1464.35 242.93C1467.25 233.07 1472.28 225.627 1479.43 220.6C1486.78 215.573 1496.83 213.06 1509.59 213.06C1523.7 213.06 1534.05 215.96 1540.62 221.76C1547.39 227.56 1551.83 235.97 1553.96 246.99C1556.09 257.817 1557.15 270.867 1557.15 286.14V299.77H1491.03V333.41C1491.03 340.177 1491.61 345.687 1492.77 349.94C1494.12 354.193 1496.15 357.383 1498.86 359.51C1501.76 361.443 1505.43 362.41 1509.88 362.41C1514.52 362.41 1518 361.347 1520.32 359.22C1522.83 356.9 1524.48 353.71 1525.25 349.65C1526.22 345.397 1526.7 340.467 1526.7 334.86V324.71H1556.86V331.09C1556.86 347.91 1553.28 361.153 1546.13 370.82C1538.98 380.487 1526.8 385.32 1509.59 385.32ZM1491.03 282.95H1526.7V267.87C1526.7 260.91 1526.31 255.11 1525.54 250.47C1524.77 245.637 1523.12 242.06 1520.61 239.74C1518.29 237.227 1514.52 235.97 1509.3 235.97C1504.27 235.97 1500.41 237.13 1497.7 239.45C1495.19 241.77 1493.45 245.733 1492.48 251.34C1491.51 256.753 1491.03 264.293 1491.03 273.96V282.95ZM1584.38 383L1586.12 215.38H1609.03L1646.15 318.33L1683.56 215.38H1706.47L1708.21 383H1682.11V282.95L1651.08 366.47H1641.51L1610.48 283.53V383H1584.38ZM1785.15 385.32C1772 385.32 1761.85 382.807 1754.7 377.78C1747.54 372.56 1742.52 365.02 1739.62 355.16C1736.91 345.107 1735.56 332.83 1735.56 318.33V280.05C1735.56 265.163 1737.01 252.79 1739.91 242.93C1742.81 233.07 1747.83 225.627 1754.99 220.6C1762.33 215.573 1772.39 213.06 1785.15 213.06C1799.26 213.06 1809.6 215.96 1816.18 221.76C1822.94 227.56 1827.39 235.97 1829.52 246.99C1831.64 257.817 1832.71 270.867 1832.71 286.14V299.77H1766.59V333.41C1766.59 340.177 1767.17 345.687 1768.33 349.94C1769.68 354.193 1771.71 357.383 1774.42 359.51C1777.32 361.443 1780.99 362.41 1785.44 362.41C1790.08 362.41 1793.56 361.347 1795.88 359.22C1798.39 356.9 1800.03 353.71 1800.81 349.65C1801.77 345.397 1802.26 340.467 1802.26 334.86V324.71H1832.42V331.09C1832.42 347.91 1828.84 361.153 1821.69 370.82C1814.53 380.487 1802.35 385.32 1785.15 385.32ZM1766.59 282.95H1802.26V267.87C1802.26 260.91 1801.87 255.11 1801.1 250.47C1800.32 245.637 1798.68 242.06 1796.17 239.74C1793.85 237.227 1790.08 235.97 1784.86 235.97C1779.83 235.97 1775.96 237.13 1773.26 239.45C1770.74 241.77 1769 245.733 1768.04 251.34C1767.07 256.753 1766.59 264.293 1766.59 273.96V282.95ZM1860.81 383V215.38H1891.84V285.85H1931.57V215.38H1962.6V383H1931.57V308.47H1891.84V383H1860.81ZM2012.76 383V238.58H1981.44V215.38H2075.4V238.58H2043.79V383H2012.76Z" fill="black"/>
</svg>
