<?xml version="1.0" encoding="UTF-8" standalone="no"?>
<svg
   width="512"
   height="512"
   viewBox="0 0 512 512"
   fill="none"
   version="1.1"
   id="svg10"
   xmlns="http://www.w3.org/2000/svg"
   xmlns:svg="http://www.w3.org/2000/svg">
  <defs
     id="defs14" />
  <path
     d="M 14,499 C 13,339.333 11.6,19.2 14,16 l 240,-4 4,126 h 122 v 6 113 h 123 v 242 z"
     fill="#ffd700"
     id="path2" />
  <path
     d="M 501.801,245.801 H 387.908 V 134.629 c 0,-5.632 -4.566,-10.199 -10.199,-10.199 H 266.539 V 10.199 C 266.539,4.567 261.973,0 256.34,0 H 10.199 C 4.566,0 0,4.567 0,10.199 V 501.801 C 0,507.433 4.566,512 10.199,512 H 501.801 C 507.434,512 512,507.433 512,501.801 V 256 c 0,-5.632 -4.566,-10.199 -10.199,-10.199 z M 367.51,144.829 V 245.801 H 144.489 V 144.829 Z M 20.398,20.398 H 246.14 V 124.43 H 20.398 Z m 0,124.431 H 124.09 V 245.801 H 20.398 Z m 0,121.37 H 246.14 V 367.851 H 20.398 Z M 124.091,491.602 H 20.398 V 388.25 H 124.09 v 103.352 z m 243.42,0 H 144.489 V 388.25 h 223.022 z m 124.091,0 H 387.909 V 388.25 h 33.318 c 5.633,0 10.199,-4.567 10.199,-10.199 0,-5.632 -4.566,-10.199 -10.199,-10.199 H 266.539 V 266.199 h 225.063 z"
     fill="#000000"
     id="path4" />
  <path
     d="m 464.064,367.852 h -6.12 c -5.633,0 -10.199,4.567 -10.199,10.199 0,5.632 4.566,10.199 10.199,10.199 h 6.12 c 5.633,0 10.199,-4.567 10.199,-10.199 0,-5.632 -4.566,-10.199 -10.199,-10.199 z"
     fill="#000000"
     id="path6" />
</svg>
